HIERARCHY
ROOT hip
{
  OFFSET 0 0 0
  CHANNELS 6 Xposition Yposition Zposition Zrotation Yrotation Xrotation
  JOINT abdomen
  {
    OFFSET 0 20.6881 -0.73152
    CHANNELS 3 Zrotation Xrotation Yrotation
    JOINT chest
    {
      OFFSET 0 11.7043 -0.48768
      CHANNELS 3 Zrotation Xrotation Yrotation
      JOINT neck
      {
        OFFSET 0 22.1894 -2.19456
        CHANNELS 3 Zrotation Xrotation Yrotation
        JOINT head
        {
          OFFSET -0.24384 7.07133 1.2192
          CHANNELS 3 Zrotation Xrotation Yrotation
          JOINT leftEye
          {
            OFFSET 4.14528 8.04674 8.04672
            CHANNELS 3 Zrotation Xrotation Yrotation
            End Site
            {
              OFFSET 1 0 0
            }
          }
          JOINT rightEye
          {
            OFFSET -3.6576 8.04674 8.04672
            CHANNELS 3 Zrotation Xrotation Yrotation
            End Site
            {
              OFFSET 1 0 0
            }
          }
        }
      }
      JOINT rCollar
      {
        OFFSET -2.68224 19.2634 -4.8768
        CHANNELS 3 Zrotation Xrotation Yrotation
        JOINT rShldr
        {
          OFFSET -8.77824 -1.95073 1.46304
          CHANNELS 3 Zrotation Xrotation Yrotation
          JOINT rForeArm
          {
            OFFSET -28.1742 -1.7115 0.48768
            CHANNELS 3 Zrotation Xrotation Yrotation
            JOINT rHand
            {
              OFFSET -22.5879 0.773209 7.07136
              CHANNELS 3 Zrotation Xrotation Yrotation
              JOINT rThumb1
              {
                OFFSET -1.2192 -0.487915 3.41376
                CHANNELS 3 Zrotation Xrotation Yrotation
                JOINT rThumb2
                {
                  OFFSET -3.37035 -0.52449 3.41376
                  CHANNELS 3 Zrotation Xrotation Yrotation
                  End Site
                  {
                    OFFSET -1.78271 -1.18214 1.43049
                  }
                }
              }
              JOINT rIndex1
              {
                OFFSET -7.75947 0.938293 5.60832
                CHANNELS 3 Zrotation Xrotation Yrotation
                JOINT rIndex2
                {
                  OFFSET -2.54057 -0.884171 1.56538
                  CHANNELS 3 Zrotation Xrotation Yrotation
                  End Site
                  {
                    OFFSET -1.62519 -0.234802 1.16502
                  }
                }
              }
              JOINT rMid1
              {
                OFFSET -8.24714 1.18213 3.41376
                CHANNELS 3 Zrotation Xrotation Yrotation
                JOINT rMid2
                {
                  OFFSET -3.10165 -0.590103 1.0647
                  CHANNELS 3 Zrotation Xrotation Yrotation
                  End Site
                  {
                    OFFSET -2.48547 -0.328903 0.83742
                  }
                }
              }
              JOINT rRing1
              {
                OFFSET -8.82822 0.546677 1.51678
                CHANNELS 3 Zrotation Xrotation Yrotation
                JOINT rRing2
                {
                  OFFSET -2.60934 -0.819778 -0.0198488
                  CHANNELS 3 Zrotation Xrotation Yrotation
                  End Site
                  {
                    OFFSET -2.33842 -0.294052 0.168128
                  }
                }
              }
              JOINT rPinky1
              {
                OFFSET -8.27202 -0.0477905 -0.4584
                CHANNELS 3 Zrotation Xrotation Yrotation
                JOINT rPinky2
                {
                  OFFSET -1.82734 -0.647385 -0.700984
                  CHANNELS 3 Zrotation Xrotation Yrotation
                  End Site
                  {
                    OFFSET -1.69225 -0.51767 -0.607171
                  }
                }
              }
            }
          }
        }
      }
      JOINT lCollar
      {
        OFFSET 2.68224 19.2634 -4.8768
        CHANNELS 3 Zrotation Xrotation Yrotation
        JOINT lShldr
        {
          OFFSET 8.77824 -1.95073 1.46304
          CHANNELS 3 Zrotation Xrotation Yrotation
          JOINT lForeArm
          {
            OFFSET 28.1742 -1.7115 0.48768
            CHANNELS 3 Zrotation Xrotation Yrotation
            JOINT lHand
            {
              OFFSET 22.5879 0.773209 7.07136
              CHANNELS 3 Zrotation Xrotation Yrotation
              JOINT lThumb1
              {
                OFFSET 1.2192 -0.487915 3.41376
                CHANNELS 3 Zrotation Xrotation Yrotation
                JOINT lThumb2
                {
                  OFFSET 3.37035 -0.52449 3.41376
                  CHANNELS 3 Zrotation Xrotation Yrotation
                  End Site
                  {
                    OFFSET 1.78271 -1.18214 1.43049
                  }
                }
              }
              JOINT lIndex1
              {
                OFFSET 7.75947 0.938293 5.60832
                CHANNELS 3 Zrotation Xrotation Yrotation
                JOINT lIndex2
                {
                  OFFSET 2.54057 -0.884171 1.56538
                  CHANNELS 3 Zrotation Xrotation Yrotation
                  End Site
                  {
                    OFFSET 1.62519 -0.234802 1.16502
                  }
                }
              }
              JOINT lMid1
              {
                OFFSET 8.24714 1.18213 3.41376
                CHANNELS 3 Zrotation Xrotation Yrotation
                JOINT lMid2
                {
                  OFFSET 3.10165 -0.590103 1.0647
                  CHANNELS 3 Zrotation Xrotation Yrotation
                  End Site
                  {
                    OFFSET 2.48547 -0.328903 0.83742
                  }
                }
              }
              JOINT lRing1
              {
                OFFSET 8.82822 0.546677 1.51678
                CHANNELS 3 Zrotation Xrotation Yrotation
                JOINT lRing2
                {
                  OFFSET 2.60934 -0.819778 -0.0198488
                  CHANNELS 3 Zrotation Xrotation Yrotation
                  End Site
                  {
                    OFFSET 2.33842 -0.294052 0.168128
                  }
                }
              }
              JOINT lPinky1
              {
                OFFSET 8.27202 -0.0477905 -0.4584
                CHANNELS 3 Zrotation Xrotation Yrotation
                JOINT lPinky2
                {
                  OFFSET 1.82734 -0.647385 -0.700984
                  CHANNELS 3 Zrotation Xrotation Yrotation
                  End Site
                  {
                    OFFSET 1.69225 -0.51767 -0.607171
                  }
                }
              }
            }
          }
        }
      }
    }
  }
  JOINT rButtock
  {
    OFFSET -8.77824 4.35084 1.2192
    CHANNELS 3 Zrotation Xrotation Yrotation
    JOINT rThigh
    {
      OFFSET 0 -1.70687 -2.19456
      CHANNELS 3 Zrotation Xrotation Yrotation
      JOINT rShin
      {
        OFFSET 0 -36.8199 0.73152
        CHANNELS 3 Zrotation Xrotation Yrotation
        JOINT rFoot
        {
          OFFSET 0.73152 -45.1104 -5.12064
          CHANNELS 3 Zrotation Xrotation Yrotation
          End Site
          {
            OFFSET -1.1221 -3.69964 12.103
          }
        }
      }
    }
  }
  JOINT lButtock
  {
    OFFSET 8.77824 4.35084 1.2192
    CHANNELS 3 Zrotation Xrotation Yrotation
    JOINT lThigh
    {
      OFFSET 0 -1.70687 -2.19456
      CHANNELS 3 Zrotation Xrotation Yrotation
      JOINT lShin
      {
        OFFSET 0 -36.8199 0.73152
        CHANNELS 3 Zrotation Xrotation Yrotation
        JOINT lFoot
        {
          OFFSET -0.73152 -45.1104 -5.12064
          CHANNELS 3 Zrotation Xrotation Yrotation
          End Site
          {
            OFFSET 1.1221 -3.69964 12.103
          }
        }
      }
    }
  }
}
MOTION
Frames:	6
Frame Time:	0.03333333333333333
-55.6158 82.4223 4.942200000000001 -871.69 -71.5756 -196.118 9.45627 -5.12184 0.279646 2.53364 -9.64266 0.157095 -7.484159999999999 1.78848 6.9462 16.132800000000003 -3.8725600000000004 15.852700000000002 -0.0 0.0 0.0 -0.0 0.0 0.0 3.90072e-13 -1.88125e-12 8.0806e-13 80.7834 53.6791 13.5682 -20.794 -14.0442 40.644 -0.513936 19.9415 2.92279 -5.58211e-10 -1.52539e-10 -1.7610500000000002e-09 -9.901210000000002e-10 -2.63318e-10 -3.04917e-09 -5.58209e-10 -1.52537e-10 -1.7610500000000002e-09 7.730910000000001 5.47488 0.417314 -5.58215e-10 -1.5254e-10 -1.7610400000000002e-09 2.9055400000000002 0.965183 0.102902 -5.58207e-10 -1.52536e-10 -1.7610500000000002e-09 10.2786 0.731801 0.0259123 -5.58211e-10 -1.52534e-10 -1.7610400000000002e-09 2.22167 -0.733487 -0.20892 3.89985e-13 -1.88125e-12 8.07811e-13 -47.524 -21.9127 -0.883416 26.5635 -45.092 -93.6497 49.2563 -80.4757 56.8935 -1.89233e-09 4.98629e-09 4.96384e-09 -3.5331699999999997e-09 7.80111e-09 8.28337e-09 -1.89233e-09 4.98629e-09 4.96385e-09 -7.730910000000001 5.47488 -0.417314 -1.89233e-09 4.98629e-09 4.96384e-09 -2.9055400000000002 0.965183 -0.102902 -1.89233e-09 4.98629e-09 4.96385e-09 -10.2786 0.731801 -0.0259123 -1.89232e-09 4.98629e-09 4.96385e-09 -2.22167 -0.733487 0.20892 -2.03217e-16 0.0 -3.88251e-19 17.2522 -34.8622 1.15982 -0.17953 33.6261 -0.219544 0.830517 -17.9336 4.541 2.03217e-16 0.0 3.88251e-19 24.2298 -44.3683 27.4527 168.542 84.0243 -168.914 1.15061 23.9524 -4.54667
-57.7057 82.7914 3.7589799999999998 -868.382 -69.1085 -200.144 11.778300000000002 -4.48931 1.23982 3.2597 -9.43384 0.512391 -7.09899 1.7714100000000002 7.88173 15.015300000000002 -4.15567 17.6425 -0.0 0.0 0.0 -0.0 0.0 0.0 8.68084e-14 -1.83575e-13 1.17941e-13 81.4279 52.2559 13.2017 -20.2508 -13.3325 39.2851 -0.632397 22.0741 3.2653 -3.07357e-10 8.21943e-11 2.4353e-10 -5.22339e-10 1.40855e-10 4.18942e-10 -3.0735e-10 8.21938e-11 2.43527e-10 7.730910000000001 5.47488 0.417314 -3.07357e-10 8.219e-11 2.43533e-10 2.9055400000000002 0.965183 0.102902 -3.0735e-10 8.21915e-11 2.43533e-10 10.2786 0.731801 0.0259123 -3.07363e-10 8.21953e-11 2.43541e-10 2.22167 -0.733487 -0.20892 8.67363e-14 -1.8357700000000002e-13 1.17597e-13 -45.7836 -25.4669 4.94365 26.1301 -46.0182 -95.5823 59.9341 -81.3645 67.7057 -1.01219e-09 1.2989e-09 1.6918300000000001e-09 -1.82902e-09 2.00729e-09 2.80841e-09 -1.01219e-09 1.2989e-09 1.6918400000000002e-09 -7.730910000000001 5.47488 -0.417314 -1.01219e-09 1.2989e-09 1.6918300000000001e-09 -2.9055400000000002 0.965183 -0.102902 -1.01219e-09 1.2989e-09 1.6918300000000001e-09 -10.2786 0.731801 -0.0259123 -1.01219e-09 1.2989e-09 1.6918300000000001e-09 -2.22167 -0.733487 0.20892 -2.03217e-16 0.0 -3.88251e-19 19.3267 -30.985900000000004 0.187892 -0.103527 30.964 -0.381463 0.915583 -16.8304 5.68057 2.03217e-16 0.0 3.88251e-19 42.317 -45.0772 44.2086 176.499 66.6272 -177.113 4.12171 46.1477 -7.84082
-60.185900000000004 83.2689 2.8987700000000007 -867.535 -67.4624 -201.40500000000003 12.884 -3.51785 2.32664 3.96646 -8.97827 0.924069 -6.94305 1.77003 8.56832 14.3196 -4.60234 19.039 -0.0 0.0 0.0 -0.0 0.0 0.0 -2.58997e-13 1.7381e-12 -5.75581e-13 81.91790000000002 50.783500000000004 13.0194 -19.6529 -12.5815 37.8441 -0.767028 24.0617 3.5979200000000002 2.1669900000000003e-10 2.94554e-10 2.19936e-09 4.16198e-10 5.05813e-10 3.79899e-09 2.1671e-10 2.9455e-10 2.19935e-09 7.730910000000001 5.47488 0.417314 2.16703e-10 2.94546e-10 2.19936e-09 2.9055400000000002 0.965183 0.102902 2.1670900000000004e-10 2.94545e-10 2.19936e-09 10.2786 0.731801 0.0259123 2.16688e-10 2.9455e-10 2.19937e-09 2.22167 -0.733487 -0.20892 -2.59052e-13 1.7381e-12 -5.75979e-13 -43.5221 -28.7643 10.5783 25.5915 -47.0228 -97.76070000000001 72.0655 -81.8774 79.9669 -4.27156e-12 -2.35038e-09 -1.59206e-09 9.06935e-11 -3.7134100000000003e-09 -2.67983e-09 -4.27983e-12 -2.35039e-09 -1.59206e-09 -7.730910000000001 5.47488 -0.417314 -4.27124e-12 -2.35038e-09 -1.59206e-09 -2.9055400000000002 0.965183 -0.102902 -4.27736e-12 -2.35038e-09 -1.59207e-09 -10.2786 0.731801 -0.0259123 -4.2689e-12 -2.35038e-09 -1.59207e-09 -2.22167 -0.733487 0.20892 -2.03217e-16 0.0 -3.88251e-19 20.7181 -26.585200000000004 0.75096 -0.0397147 28.3808 -0.460523 0.570934 -16.7489 5.16039 2.03217e-16 0.0 3.88251e-19 59.6184 -40.9607 58.574400000000004 177.2 52.0961 -177.882 12.8332 66.1443 -16.3867
-63.2433 83.6911 2.3337200000000005 -867.015 -66.3249 -202.832 13.6083 -3.2439100000000005 3.6585500000000004 4.18387 -8.08938 1.33641 -7.05067 1.86913 8.79491 14.0585 -4.8935 19.5473 -0.0 0.0 0.0 -0.0 0.0 0.0 -2.5075e-13 1.7837400000000002e-12 -3.19677e-13 81.4496 51.1637 13.31 -19.029 -11.8408 36.3627 -0.784453 24.2885 3.63698 4.2825100000000005e-10 4.12071e-10 1.7276900000000003e-09 7.72736e-10 7.07614e-10 2.97607e-09 4.28257e-10 4.12069e-10 1.7276699999999999e-09 7.730910000000001 5.47488 0.417314 4.2825300000000007e-10 4.12066e-10 1.7276900000000003e-09 2.9055400000000002 0.965183 0.102902 4.2826000000000003e-10 4.12063e-10 1.7276900000000003e-09 10.2786 0.731801 0.0259123 4.28241e-10 4.12065e-10 1.7277e-09 2.22167 -0.733487 -0.20892 -2.50797e-13 1.7837400000000002e-12 -3.19966e-13 -41.0482 -31.7634 15.556499999999998 24.8879 -48.1926 -100.351 82.2566 -81.9996 90.259 4.73728e-10 -4.1135600000000003e-10 -2.71966e-10 8.14696e-10 -5.95291e-10 -4.22533e-10 4.73717e-10 -4.11352e-10 -2.71945e-10 -7.730910000000001 5.47488 -0.417314 4.73728e-10 -4.11355e-10 -2.71964e-10 -2.9055400000000002 0.965183 -0.102902 4.73721e-10 -4.11354e-10 -2.71969e-10 -10.2786 0.731801 -0.0259123 4.73731e-10 -4.11351e-10 -2.71977e-10 -2.22167 -0.733487 0.20892 -2.03217e-16 0.0 -3.88251e-19 21.1027 -22.5449 1.22895 -0.0308703 26.3813 -0.441412 0.45092600000000005 -17.3807 4.62237 2.03217e-16 0.0 3.88251e-19 75.7634 -34.0113 67.4655 177.177 42.153 -176.933 24.7296 77.0615 -27.152900000000002
-66.6174 83.8003 2.1402100000000006 -866.68 -66.3218 -204.208 13.9525 -2.928 4.95898 4.22478 -7.30864 1.74379 -7.47085 2.11556 8.68937 14.163200000000002 -5.19949 19.4543 -0.0 0.0 0.0 -0.0 0.0 0.0 -1.46485e-13 1.35616e-12 7.47927e-14 80.9922 51.6129 13.3969 -18.454 -11.1833 35.046800000000005 -0.775359 24.1823 3.61831 5.26368e-10 4.1693300000000005e-10 8.187420000000001e-10 9.26299e-10 7.14674e-10 1.39822e-09 5.26367e-10 4.1693300000000005e-10 8.18719e-10 7.730910000000001 5.47488 0.417314 5.26367e-10 4.1693100000000004e-10 8.18748e-10 2.9055400000000002 0.965183 0.102902 5.26376e-10 4.1692699999999995e-10 8.187430000000001e-10 10.2786 0.731801 0.0259123 5.2636e-10 4.1692499999999993e-10 8.18754e-10 2.22167 -0.733487 -0.20892 -1.46533e-13 1.35616e-12 7.46436e-14 -38.4206 -34.2712 19.8914 24.137 -49.2186 -102.849 90.73620000000001 -81.9055 98.8228 5.37641e-10 2.0521200000000006e-09 1.57266e-09 8.03467e-10 3.32601e-09 2.69508e-09 5.37629e-10 2.05213e-09 1.5727e-09 -7.730910000000001 5.47488 -0.417314 5.37641e-10 2.05213e-09 1.57266e-09 -2.9055400000000002 0.965183 -0.102902 5.37634e-10 2.05213e-09 1.57266e-09 -10.2786 0.731801 -0.0259123 5.37644e-10 2.05213e-09 1.57265e-09 -2.22167 -0.733487 0.20892 -2.03217e-16 0.0 -3.88251e-19 20.7958 -18.8927 1.65243 -0.0182604 25.4365 -0.34295 0.290446 -19.0189 3.58761 2.03217e-16 0.0 3.88251e-19 85.2412 -30.6902 70.71590000000002 177.273 37.5775 -176.141 31.120000000000005 81.4388 -32.6313
-70.08350000000002 83.5073 2.1984200000000005 -864.793 -67.5788 -207.31 14.1588 -1.9363900000000003 5.86357 4.31033 -7.1357 2.12506 -8.34183 2.56574 8.2387 14.6804 -5.50691 18.7659 -0.0 0.0 0.0 -0.0 0.0 0.0 -1.0290400000000001e-13 1.21145e-12 -3.87692e-14 81.4741 50.6523 12.5016 -18.0721 -10.7622 34.1893 -0.819989 24.8192 3.7265200000000003 6.24939e-10 3.6101300000000005e-10 1.32847e-09 1.109e-09 6.10769e-10 2.27916e-09 6.24938e-10 3.6101400000000006e-10 1.32846e-09 7.730910000000001 5.47488 0.417314 6.24939e-10 3.6101300000000005e-10 1.32848e-09 2.9055400000000002 0.965183 0.102902 6.24947e-10 3.61009e-10 1.32847e-09 10.2786 0.731801 0.0259123 6.24932e-10 3.61007e-10 1.32848e-09 2.22167 -0.733487 -0.20892 -1.02972e-13 1.21145e-12 -3.88438e-14 -35.9872 -36.0167 23.0771 23.6387 -49.83240000000001 -104.405 96.8302 -81.7215 104.979 -8.56085e-11 8.78631e-10 7.84054e-10 -2.03806e-10 1.43546e-09 1.32226e-09 -8.5622e-11 8.78635e-10 7.840750000000001e-10 -7.730910000000001 5.47488 -0.417314 -8.56109e-11 8.78629e-10 7.84059e-10 -2.9055400000000002 0.965183 -0.102902 -8.56185e-11 8.7863e-10 7.84057e-10 -10.2786 0.731801 -0.0259123 -8.56071e-11 8.78632e-10 7.84048e-10 -2.22167 -0.733487 0.20892 -2.03217e-16 0.0 -3.88251e-19 20.0129 -15.8815 1.23766 0.027779400000000003 26.399600000000003 -0.180369 0.04343060000000001 -21.9705 2.23657 2.03217e-16 0.0 3.88251e-19 79.8514 -39.4043 65.4269 177.269 40.586 -176.676 16.9335 78.8321 -18.3789
